<svg xmlns="http://www.w3.org/2000/svg" viewBox="0 0 24 24" aria-hidden="true">
  <circle
    cx="12"
    cy="12"
    r="2.6"
    fill="none"
    stroke="currentColor"
    stroke-width="1.9"
    stroke-linecap="round"
    stroke-linejoin="round"
  />
  <path
    d="M19.4 15a1 1 0 0 0 .2 1.1l.1.1a1.2 1.2 0 0 1 0 1.7l-1.6 1.6a1.2 1.2 0 0 1-1.7 0l-.1-.1a1 1 0 0 0-1.1-.2 1 1 0 0 0-.6.9V20a1.2 1.2 0 0 1-1.2 1.2h-2.3A1.2 1.2 0 0 1 9.9 20v-.2a1 1 0 0 0-.6-.9 1 1 0 0 0-1.1.2l-.1.1a1.2 1.2 0 0 1-1.7 0l-1.6-1.6a1.2 1.2 0 0 1 0-1.7l.1-.1a1 1 0 0 0 .2-1.1 1 1 0 0 0-.9-.6H4a1.2 1.2 0 0 1-1.2-1.2v-2.3A1.2 1.2 0 0 1 4 9.4h.2a1 1 0 0 0 .9-.6 1 1 0 0 0-.2-1.1l-.1-.1a1.2 1.2 0 0 1 0-1.7l1.6-1.6a1.2 1.2 0 0 1 1.7 0l.1.1a1 1 0 0 0 1.1.2 1 1 0 0 0 .6-.9V4a1.2 1.2 0 0 1 1.2-1.2h2.3A1.2 1.2 0 0 1 14.7 4v.2a1 1 0 0 0 .6.9 1 1 0 0 0 1.1-.2l.1-.1a1.2 1.2 0 0 1 1.7 0l1.6 1.6a1.2 1.2 0 0 1 0 1.7l-.1.1a1 1 0 0 0-.2 1.1 1 1 0 0 0 .9.6h.2A1.2 1.2 0 0 1 21.2 11v2.3a1.2 1.2 0 0 1-1.2 1.2h-.2a1 1 0 0 0-.4.5z"
    fill="none"
    stroke="currentColor"
    stroke-width="1.9"
    stroke-linecap="round"
    stroke-linejoin="round"
  />
</svg>
